<svg width="125" height="114" viewBox="0 0 125 114" fill="none" xmlns="http://www.w3.org/2000/svg">
<g clip-path="url(#clip0_633_347)">
<path d="M57.832 70.576L49.64 46.832L39.848 69.936C39.3787 70.064 38.8027 70.1707 38.12 70.256C37.4373 70.3413 36.8613 70.4053 36.392 70.448L23.464 33.84C22.9093 32.304 22.44 31.1093 22.056 30.256C21.672 29.4027 21.2453 28.784 20.776 28.4C20.3067 28.016 19.688 27.76 18.92 27.632C18.1947 27.4613 17.192 27.312 15.912 27.184C15.8267 26.5013 15.8267 25.8187 15.912 25.136C17.32 25.136 18.8347 25.1573 20.456 25.2C22.12 25.2427 23.6773 25.264 25.128 25.264C26.3653 25.264 27.8587 25.2427 29.608 25.2C31.4 25.1573 32.9573 25.136 34.28 25.136C34.408 25.776 34.408 26.4587 34.28 27.184C32.5307 27.3547 31.2933 27.5467 30.568 27.76C29.8427 27.9733 29.48 28.464 29.48 29.232C29.48 29.5307 29.544 29.9147 29.672 30.384C29.8 30.8107 29.9707 31.3653 30.184 32.048L40.296 61.36L48.296 42.8L45.224 33.904C44.712 32.368 44.264 31.1733 43.88 30.32C43.5387 29.424 43.1547 28.784 42.728 28.4C42.3013 28.016 41.7467 27.76 41.064 27.632C40.424 27.4613 39.528 27.312 38.376 27.184C38.2907 26.5013 38.2907 25.8187 38.376 25.136C39.8693 25.136 41.384 25.1573 42.92 25.2C44.456 25.2427 45.9493 25.264 47.4 25.264C48.68 25.264 50.2373 25.2427 52.072 25.2C53.9067 25.1573 55.528 25.136 56.936 25.136C57.064 25.776 57.064 26.4587 56.936 27.184C54.8453 27.3547 53.3733 27.5467 52.52 27.76C51.7093 27.9733 51.304 28.4853 51.304 29.296C51.304 29.8933 51.5173 30.8107 51.944 32.048L61.672 61.488L72.104 33.072C72.4453 32.2187 72.7013 31.5147 72.872 30.96C73.0853 30.4053 73.192 29.9147 73.192 29.488C73.192 28.6773 72.7653 28.144 71.912 27.888C71.0587 27.5893 69.5867 27.3547 67.496 27.184C67.368 26.4587 67.368 25.776 67.496 25.136C68.0933 25.136 68.968 25.1573 70.12 25.2C71.272 25.2 72.424 25.2213 73.576 25.264C74.7707 25.264 75.6667 25.264 76.264 25.264C77.5867 25.264 78.8027 25.2427 79.912 25.2C81.0213 25.1573 82.216 25.136 83.496 25.136C83.624 25.8187 83.624 26.5013 83.496 27.184C82.2587 27.312 81.2347 27.4613 80.424 27.632C79.656 27.8027 78.9947 28.1227 78.44 28.592C77.8853 29.0187 77.352 29.7227 76.84 30.704C76.3707 31.6427 75.816 32.944 75.176 34.608L61.224 70.064C60.7973 70.192 60.2213 70.2987 59.496 70.384C58.8133 70.4693 58.2587 70.5333 57.832 70.576Z" fill="white"/>
<path d="M63.92 90.064C63.8347 89.424 63.8347 88.7413 63.92 88.016C65.968 87.8027 67.44 87.6107 68.336 87.44C69.232 87.2267 69.7867 86.8 70 86.16C70.2133 85.52 70.32 84.432 70.32 82.896V53.136C70.32 51.344 70.2133 50.064 70 49.296C69.7867 48.528 69.232 48.0373 68.336 47.824C67.44 47.568 65.968 47.3547 63.92 47.184C63.8347 46.544 63.8347 45.8613 63.92 45.136C64.7733 45.136 65.8187 45.1573 67.056 45.2C68.336 45.2 69.5947 45.2213 70.832 45.264C72.0693 45.264 73.072 45.264 73.84 45.264C74.6507 45.264 75.632 45.264 76.784 45.264C77.9787 45.2213 79.1733 45.2 80.368 45.2C81.6053 45.1573 82.6507 45.136 83.504 45.136C83.632 45.776 83.632 46.4587 83.504 47.184C81.5413 47.3547 80.1333 47.5467 79.28 47.76C78.4267 47.9733 77.8933 48.4 77.68 49.04C77.4667 49.68 77.36 50.768 77.36 52.304V68.112L92.08 52.496C93.7013 50.7467 94.512 49.552 94.512 48.912C94.512 48.3573 94.128 47.9733 93.36 47.76C92.592 47.504 91.3333 47.312 89.584 47.184C89.4987 46.4587 89.4987 45.776 89.584 45.136C90.3093 45.136 91.2267 45.1573 92.336 45.2C93.4453 45.2 94.5547 45.2213 95.664 45.264C96.7733 45.264 97.6693 45.264 98.352 45.264C99.7173 45.264 100.997 45.2427 102.192 45.2C103.429 45.1573 104.773 45.136 106.224 45.136C106.309 45.8187 106.309 46.5013 106.224 47.184C104.901 47.312 103.792 47.4827 102.896 47.696C102.043 47.9093 101.211 48.272 100.4 48.784C99.632 49.296 98.7573 50.0213 97.776 50.96C96.7947 51.8987 95.5573 53.136 94.064 54.672L84.656 64.4L97.84 81.744C98.864 83.0667 99.7173 84.1333 100.4 84.944C101.083 85.712 101.744 86.3093 102.384 86.736C103.067 87.12 103.835 87.3973 104.688 87.568C105.584 87.7387 106.715 87.888 108.08 88.016C108.208 88.6987 108.208 89.3813 108.08 90.064C107.269 90.064 106.309 90.0427 105.2 90C104.091 90 103.003 90 101.936 90C100.869 89.9573 99.952 89.936 99.184 89.936C98.7147 89.936 98.096 89.9573 97.328 90C96.6027 90 95.9413 90 95.344 90L79.984 69.328L77.36 72.208V82.064C77.36 83.856 77.4667 85.1573 77.68 85.968C77.8933 86.736 78.4267 87.2267 79.28 87.44C80.176 87.6533 81.584 87.8453 83.504 88.016C83.632 88.6987 83.632 89.3813 83.504 90.064C82.6507 90.064 81.6053 90.0427 80.368 90C79.1733 90 77.9573 90 76.72 90C75.5253 89.9573 74.5227 89.936 73.712 89.936C72.9013 89.936 71.8987 89.9573 70.704 90C69.5093 90 68.2933 90 67.056 90C65.8613 90.0427 64.816 90.064 63.92 90.064Z" fill="white"/>
</g>
<rect x="2" y="2" width="121" height="110" rx="14" stroke="white" stroke-width="4"/>
<defs>
<clipPath id="clip0_633_347">
<rect width="125" height="114" rx="16" fill="white"/>
</clipPath>
</defs>
</svg>
