<svg width="125" height="114" viewBox="0 0 125 114" fill="none" xmlns="http://www.w3.org/2000/svg">
<rect x="2" y="2" width="121" height="110" rx="14" stroke="white" stroke-width="4"/>
<path d="M43.0312 58.1562C39.2812 65.1979 35.1979 68.7188 30.7812 68.7188C28.4688 68.7188 26.6146 67.875 25.2188 66.1875C23.8229 64.4792 23.125 62.2292 23.125 59.4375C23.125 56.1875 24.2812 51.25 26.5938 44.625C28.9271 38 30.0938 33.3125 30.0938 30.5625C30.0938 29.3333 29.7396 28.3125 29.0312 27.5C28.3438 26.6875 27.4792 26.2812 26.4375 26.2812C24.8333 26.2812 23.2396 27.2604 21.6562 29.2188C20.0729 31.1771 19.2812 33.1771 19.2812 35.2188C19.2812 36.7812 19.9896 38.4062 21.4062 40.0938C21.9896 40.8021 22.2812 41.2917 22.2812 41.5625C22.2812 41.875 21.8333 42.5729 20.9375 43.6562C20.0417 44.7396 19.2708 45.2812 18.625 45.2812C17.9375 45.2812 17.1562 44.7812 16.2812 43.7812C15.4062 42.7812 14.9688 41.2917 14.9688 39.3125C14.9688 35.2917 16.375 31.6354 19.1875 28.3438C22.0208 25.0521 25.1458 23.4062 28.5625 23.4062C31.125 23.4062 33.2917 24.4688 35.0625 26.5938C36.8333 28.7188 37.7188 31.3646 37.7188 34.5312C37.7188 37.8646 36.6458 42.5833 34.5 48.6875C32.375 54.7708 31.3125 58.8438 31.3125 60.9062C31.3125 61.8854 31.5625 62.6667 32.0625 63.25C32.5625 63.8125 33.2292 64.0938 34.0625 64.0938C35.875 64.0938 37.6771 62.6146 39.4688 59.6562C41.2604 56.6979 42.8958 52.4583 44.375 46.9375L47.3125 35.9375C48.4583 31.6042 49.7396 27.8229 51.1562 24.5938C51.3021 24.2396 52.2708 23.9688 54.0625 23.7812C55.875 23.5729 57.1875 23.4688 58 23.4688C58.8125 23.4688 59.2188 23.6354 59.2188 23.9688L53.5 45.7812C51.8542 52.1771 51.0312 56.8542 51.0312 59.8125C51.0312 61.1042 51.3021 62.1354 51.8438 62.9062C52.3854 63.6562 53.1146 64.0312 54.0312 64.0312C55.3854 64.0312 57.2292 62.9271 59.5625 60.7188C61.9167 58.4896 63.8958 55.6562 65.5 52.2188C67.1042 48.7604 67.9062 45.2292 67.9062 41.625C67.9062 37.7708 66.9688 33.9375 65.0938 30.125C64.5729 29.0208 64.3125 28.3333 64.3125 28.0625C64.3125 27.1667 65.1667 26.1771 66.875 25.0938C68.6042 24.0104 69.8438 23.4688 70.5938 23.4688C71.3021 23.4688 72.0104 24.4167 72.7188 26.3125C73.4479 28.1875 73.8125 30.1562 73.8125 32.2188C73.8125 37.6979 72.5312 43.3125 69.9688 49.0625C67.4062 54.7917 64.2188 59.5 60.4062 63.1875C56.5938 66.875 53.1458 68.7188 50.0625 68.7188C47.875 68.7188 46.1354 67.8438 44.8438 66.0938C43.5729 64.3229 42.9688 61.6771 43.0312 58.1562Z" fill="white"/>
<path d="M83.7812 51.7812C81.4688 52.6771 79.5208 53.125 77.9375 53.125C76.8125 53.125 75.375 52.8021 73.625 52.1562C71.8958 51.5104 70.6458 51.1875 69.875 51.1875C68.5 51.1875 67.3229 51.7292 66.3438 52.8125C65.3646 53.875 64.875 55.1667 64.875 56.6875C64.875 58.4375 65.6667 59.9792 67.25 61.3125C67.7708 61.75 68.0312 62.0833 68.0312 62.3125C68.0312 62.6667 67.5521 63.3229 66.5938 64.2812C65.6562 65.2396 64.8542 65.7188 64.1875 65.7188C63.4583 65.7188 62.7292 65.1042 62 63.875C61.2708 62.6458 60.9062 61.3854 60.9062 60.0938C60.9062 56.7188 62.2812 53.5938 65.0312 50.7188C67.7812 47.8438 70.7604 46.4062 73.9688 46.4062C75.1979 46.4062 76.7188 46.7604 78.5312 47.4688C80.3646 48.1562 81.6875 48.5 82.5 48.5C83.75 48.5 84.8542 47.9896 85.8125 46.9688C86.1458 46.6354 86.4479 46.4688 86.7188 46.4688C86.9896 46.4688 87.4375 46.5729 88.0625 46.7812C88.7083 46.9896 89.0312 47.2188 89.0312 47.4688C89.0312 47.6562 88.4479 48.5 87.2812 50C86.1146 51.4792 85.2083 53.0833 84.5625 54.8125C83.9167 56.5417 83.3125 59.1146 82.75 62.5312L82.0938 66.375C80.8438 74 79.3646 79.3646 77.6562 82.4688C75.9688 85.5521 73.8438 87.8646 71.2812 89.4062C68.7396 90.9479 65.9896 91.7188 63.0312 91.7188C60.2188 91.7188 57.7292 91.0521 55.5625 89.7188C53.4167 88.3854 52.3438 86.8958 52.3438 85.25C52.3438 84.4375 53.0521 83.4167 54.4688 82.1875C55.8854 80.9375 56.9062 80.3125 57.5312 80.3125C58.5104 80.3125 59 81.1042 59 82.6875C59.0625 87.125 60.4688 89.3438 63.2188 89.3438C67.4896 89.3438 70.3125 84.4479 71.6875 74.6562C72.2917 70.4688 73.1771 66.8229 74.3438 63.7188C75.5312 60.5938 78.6771 56.6146 83.7812 51.7812ZM105.719 84.0938C103.219 86.7396 101.021 88.6771 99.125 89.9062C97.2292 91.1146 95.2292 91.7188 93.125 91.7188C90.9792 91.7188 89.1979 90.9271 87.7812 89.3438C86.3854 87.7604 85.6875 85.75 85.6875 83.3125C85.6875 82.9583 85.8229 81.5938 86.0938 79.2188C86.3854 76.8229 86.5312 75.3958 86.5312 74.9375C86.5312 72.9583 86.125 71.5521 85.3125 70.7188C85.0625 70.7604 84.6771 70.7812 84.1562 70.7812C83.1771 70.7812 82.6875 70.3542 82.6875 69.5C82.6875 68.25 83.3333 67.625 84.625 67.625L86 67.7188C87.3125 67.7188 88.4271 67.1042 89.3438 65.875C90.2604 64.6458 91.1354 62.3333 91.9688 58.9375C94.0104 50.625 97.0833 46.4688 101.188 46.4688C102.146 46.4688 103.052 46.8333 103.906 47.5625C104.781 48.2917 105.219 49.0521 105.219 49.8438C105.219 50.3229 104.833 51.3229 104.062 52.8438C103.292 54.3438 102.688 55.0938 102.25 55.0938C102.021 55.0938 101.677 54.7083 101.219 53.9375C100.76 53.1667 100.083 52.7812 99.1875 52.7812C97.4375 52.7812 96.0729 54.6875 95.0938 58.5C94.1146 62.3125 93.125 64.9062 92.125 66.2812C91.125 67.6562 90.0417 68.5521 88.875 68.9688C90.9583 70.0521 92.4688 71.3125 93.4062 72.75C94.3646 74.1875 94.8438 76.0938 94.8438 78.4688C94.8438 78.9271 94.7917 79.6771 94.6875 80.7188C94.6042 81.7604 94.5625 82.5312 94.5625 83.0312C94.5625 85.3646 95.5104 86.5312 97.4062 86.5312C99.5938 86.5312 102.365 84.5208 105.719 80.5V84.0938Z" fill="white"/>
</svg>
